<?xml version="1.0" encoding="UTF-8"?>
<!DOCTYPE svg PUBLIC "-//W3C//DTD SVG 1.1//EN" "http://www.w3.org/Graphics/SVG/1.1/DTD/svg11.dtd">
<svg xmlns="http://www.w3.org/2000/svg" version="1.1" width="150px" height="150px" style="shape-rendering:geometricPrecision; text-rendering:geometricPrecision; image-rendering:optimizeQuality; fill-rule:evenodd; clip-rule:evenodd" xmlns:xlink="http://www.w3.org/1999/xlink">
<g><path style="opacity:1" fill="#f8e521" d="M 96.5,27.5 C 103.761,31.5926 109.594,37.2593 114,44.5C 114.333,43.8333 114.667,43.1667 115,42.5C 115.708,43.3805 116.542,44.0472 117.5,44.5C 126.018,61.5267 126.685,78.86 119.5,96.5C 118.957,96.44 118.624,96.1067 118.5,95.5C 125.495,79.2683 124.995,63.2683 117,47.5C 116.346,46.3044 115.846,46.3044 115.5,47.5C 120.912,57.8462 122.912,68.8462 121.5,80.5C 120.833,80.5 120.5,80.1667 120.5,79.5C 122.01,53.9989 111.01,36.4989 87.5,27C 85.5273,26.5045 83.5273,26.3379 81.5,26.5C 64.2653,23.9771 50.0986,29.6438 39,43.5C 40.5778,39.8859 43.0778,36.7193 46.5,34C 61.9796,22.6462 78.6463,20.4795 96.5,27.5 Z"/></g>
<g><path style="opacity:0.996" fill="#d9a133" d="M 117.5,44.5 C 116.542,44.0472 115.708,43.3805 115,42.5C 114.667,43.1667 114.333,43.8333 114,44.5C 109.594,37.2593 103.761,31.5926 96.5,27.5C 96.5,26.8333 96.5,26.1667 96.5,25.5C 96.1667,24.1667 95.8333,24.1667 95.5,25.5C 94.8333,25.5 94.5,25.1667 94.5,24.5C 94.1667,23.1667 93.8333,23.1667 93.5,24.5C 92.5084,24.6716 91.8417,24.3382 91.5,23.5C 91.1667,22.1667 90.8333,22.1667 90.5,23.5C 89.209,23.7373 88.209,23.404 87.5,22.5C 87.1667,21.1667 86.8333,21.1667 86.5,22.5C 84.2646,22.7947 82.2646,22.4614 80.5,21.5C 80.1667,20.1667 79.8333,20.1667 79.5,21.5C 77.1667,21.5 74.8333,21.5 72.5,21.5C 72.1667,20.1667 71.8333,20.1667 71.5,21.5C 70.8333,21.5 70.1667,21.5 69.5,21.5C 68.8333,20.1667 68.1667,20.1667 67.5,21.5C 67.1583,22.3382 66.4916,22.6716 65.5,22.5C 65.1667,21.1667 64.8333,21.1667 64.5,22.5C 63.791,23.404 62.791,23.7373 61.5,23.5C 61.5,23.1667 61.5,22.8333 61.5,22.5C 61.8333,22.5 62.1667,22.5 62.5,22.5C 63.8333,22.1667 63.8333,21.8333 62.5,21.5C 61.8333,21.5 61.1667,21.5 60.5,21.5C 61.5203,20.0462 62.687,19.7129 64,20.5C 72,17.8333 80,17.8333 88,20.5C 89.1475,19.5419 90.1475,19.8753 91,21.5C 92.3333,21.5 93.6667,21.5 95,21.5C 95.3242,23.5689 96.1575,23.9023 97.5,22.5C 99.1667,23.3333 100.833,24.1667 102.5,25C 101.346,25.9138 101.513,26.7471 103,27.5C 104.84,26.1669 105.34,26.3335 104.5,28C 105.572,29.2837 106.905,29.6171 108.5,29C 108.167,29.3333 107.833,29.6667 107.5,30C 110.444,32.1891 112.277,34.6891 113,37.5C 114.566,36.9394 115.899,37.6061 117,39.5C 117.333,39.1667 117.667,38.8333 118,38.5C 118.507,39.9961 118.007,41.1627 116.5,42C 117.252,42.6708 117.586,43.5041 117.5,44.5 Z"/></g>
<g><path style="opacity:0.984" fill="#c5810d" d="M 60.5,21.5 C 61.1667,21.5 61.8333,21.5 62.5,21.5C 62.5,21.8333 62.5,22.1667 62.5,22.5C 62.1667,22.5 61.8333,22.5 61.5,22.5C 60.1667,22.8333 60.1667,23.1667 61.5,23.5C 62.791,23.7373 63.791,23.404 64.5,22.5C 64.8333,22.5 65.1667,22.5 65.5,22.5C 66.4916,22.6716 67.1583,22.3382 67.5,21.5C 68.1667,21.5 68.8333,21.5 69.5,21.5C 70.1667,21.5 70.8333,21.5 71.5,21.5C 71.8333,21.5 72.1667,21.5 72.5,21.5C 74.8333,21.5 77.1667,21.5 79.5,21.5C 79.8333,21.5 80.1667,21.5 80.5,21.5C 82.2646,22.4614 84.2646,22.7947 86.5,22.5C 86.8333,22.5 87.1667,22.5 87.5,22.5C 88.209,23.404 89.209,23.7373 90.5,23.5C 90.8333,23.5 91.1667,23.5 91.5,23.5C 91.8417,24.3382 92.5084,24.6716 93.5,24.5C 93.8333,24.5 94.1667,24.5 94.5,24.5C 94.5,25.1667 94.8333,25.5 95.5,25.5C 95.8333,25.5 96.1667,25.5 96.5,25.5C 96.5,26.1667 96.5,26.8333 96.5,27.5C 78.6463,20.4795 61.9796,22.6462 46.5,34C 43.0778,36.7193 40.5778,39.8859 39,43.5C 50.0986,29.6438 64.2653,23.9771 81.5,26.5C 77.1539,26.3343 72.8206,26.501 68.5,27C 67.2625,27.2321 66.2625,27.7321 65.5,28.5C 51.2626,31.7366 41.2626,40.0699 35.5,53.5C 35.1667,53.5 34.8333,53.5 34.5,53.5C 34.6567,52.1266 34.49,50.7932 34,49.5C 27.3519,61.0033 25.8519,73.0033 29.5,85.5C 31.9083,95.6484 36.9083,104.315 44.5,111.5C 42.0517,109.716 39.385,108.382 36.5,107.5C 36.5,106.833 36.1667,106.5 35.5,106.5C 35.5,105.833 35.1667,105.5 34.5,105.5C 34.6716,104.508 34.3382,103.842 33.5,103.5C 33.5,102.833 33.1667,102.5 32.5,102.5C 32.6716,101.508 32.3382,100.842 31.5,100.5C 31.6716,99.5084 31.3382,98.8417 30.5,98.5C 30.6716,97.5084 30.3382,96.8417 29.5,96.5C 29.6716,95.5084 29.3382,94.8417 28.5,94.5C 28.7373,93.209 28.404,92.209 27.5,91.5C 27.7373,90.209 27.404,89.209 26.5,88.5C 26.7678,86.901 26.4345,85.5676 25.5,84.5C 25.8016,81.9407 25.4682,79.6074 24.5,77.5C 24.5,75.1667 24.5,72.8333 24.5,70.5C 25.4682,68.3926 25.8016,66.0593 25.5,63.5C 26.4345,62.4324 26.7678,61.099 26.5,59.5C 27.4345,58.4324 27.7678,57.099 27.5,55.5C 28.3382,55.1583 28.6716,54.4916 28.5,53.5C 29.404,52.791 29.7373,51.791 29.5,50.5C 30.3382,50.1583 30.6716,49.4916 30.5,48.5C 31.1667,48.5 31.5,48.1667 31.5,47.5C 32.3382,47.1583 32.6716,46.4916 32.5,45.5C 33.4013,44.7095 34.0679,43.7095 34.5,42.5C 35.1667,42.5 35.5,42.1667 35.5,41.5C 38.2678,38.229 41.2678,35.0623 44.5,32C 44.5,30.6667 44.5,29.3333 44.5,28C 46.0948,28.6171 47.4281,28.2837 48.5,27C 47.6598,25.3335 48.1598,25.1669 50,26.5C 51.0118,24.1358 52.3451,22.8024 54,22.5C 55.164,22.1654 56.4974,22.1654 58,22.5C 58.3418,20.3808 59.1751,20.0474 60.5,21.5 Z"/></g>
<g><path style="opacity:0.004" fill="#984911" d="M 39.5,31.5 C 40.2389,31.369 40.9056,31.5357 41.5,32C 40,33.5 38.5,35 37,36.5C 37.0579,34.5646 37.8912,32.8979 39.5,31.5 Z"/></g>
<g><path style="opacity:1" fill="#713b03" d="M 100.5,36.5 C 95.3542,33.097 89.6875,31.097 83.5,30.5C 61.4127,27.4646 45.5793,36.1312 36,56.5C 35.5172,55.552 35.3505,54.552 35.5,53.5C 41.2626,40.0699 51.2626,31.7366 65.5,28.5C 74.7462,26.66 83.7462,27.4933 92.5,31C 95.7556,32.116 98.4223,33.9493 100.5,36.5 Z"/></g>
<g><path style="opacity:1" fill="#a46403" d="M 81.5,26.5 C 83.5273,26.3379 85.5273,26.5045 87.5,27C 111.01,36.4989 122.01,53.9989 120.5,79.5C 119.596,80.209 119.263,81.209 119.5,82.5C 119.011,74.2047 117.845,65.8714 116,57.5C 114.587,54.3388 112.92,51.3388 111,48.5C 115.867,62.2453 115.2,62.5786 109,49.5C 106.872,46.3699 104.372,43.5366 101.5,41C 102.738,41.0773 103.738,40.9106 104.5,40.5C 102.812,39.4787 101.479,38.1454 100.5,36.5C 98.4223,33.9493 95.7556,32.116 92.5,31C 83.7462,27.4933 74.7462,26.66 65.5,28.5C 66.2625,27.7321 67.2625,27.2321 68.5,27C 72.8206,26.501 77.1539,26.3343 81.5,26.5 Z"/></g>
<g><path style="opacity:1" fill="#ac6f09" d="M 83.5,30.5 C 86.4289,31.5377 89.4289,32.7043 92.5,34C 93.8825,35.4609 93.5492,36.2942 91.5,36.5C 83.4977,32.6944 75.1643,31.6944 66.5,33.5C 50.4918,38.0087 40.3252,48.342 36,64.5C 34.1956,76.6863 36.3622,88.0196 42.5,98.5C 42.8333,99.8333 43.1667,101.167 43.5,102.5C 43.5,103.167 43.5,103.833 43.5,104.5C 37.9774,100.129 34.4774,94.4623 33,87.5C 31.6304,81.2584 31.1304,74.9251 31.5,68.5C 31.4618,63.2843 32.4618,58.2843 34.5,53.5C 34.8333,53.5 35.1667,53.5 35.5,53.5C 35.3505,54.552 35.5172,55.552 36,56.5C 45.5793,36.1312 61.4127,27.4646 83.5,30.5 Z"/></g>
<g><path style="opacity:0.004" fill="#c4821c" d="M 35.5,41.5 C 34.8333,41.5 34.5,41.8333 34.5,42.5C 32.9153,41.9976 32.4153,40.9976 33,39.5C 33.6667,40.8333 34.3333,40.8333 35,39.5C 35.4643,40.0944 35.631,40.7611 35.5,41.5 Z"/></g>
<g><path style="opacity:1" fill="#fced26" d="M 78.5,38.5 C 79.2436,42.6113 78.5769,46.6113 76.5,50.5C 73.5,50.5 70.5,50.5 67.5,50.5C 65.3946,48.2148 63.8946,45.5481 63,42.5C 61.9326,41.8095 60.7659,41.3095 59.5,41C 65.6913,37.7855 72.0247,36.9521 78.5,38.5 Z"/></g>
<g><path style="opacity:1" fill="#fcfa5b" d="M 78.5,38.5 C 81.2062,38.5751 83.8728,38.9084 86.5,39.5C 101.358,47.5564 108.024,59.8897 106.5,76.5C 106.662,74.4727 106.495,72.4727 106,70.5C 105.586,70.0426 105.086,69.7093 104.5,69.5C 102.016,72.4843 99.3497,75.3176 96.5,78C 97.056,78.3826 97.3893,78.8826 97.5,79.5C 92.8714,79.5173 89.538,77.5173 87.5,73.5C 87.5,72.5 87.5,71.5 87.5,70.5C 90.134,67.8885 93.134,65.7218 96.5,64C 97.8077,59.1536 97.8077,54.3203 96.5,49.5C 94.2351,48.3526 91.9018,48.1859 89.5,49C 87.3333,50.5 85.1667,52 83,53.5C 81.3644,51.4503 79.1977,50.4503 76.5,50.5C 78.5769,46.6113 79.2436,42.6113 78.5,38.5 Z"/></g>
<g><path style="opacity:0.004" fill="#c68b1f" d="M 32.5,45.5 C 32.1667,45.5 31.8333,45.5 31.5,45.5C 31.5,44.8333 31.1667,44.5 30.5,44.5C 31.3013,42.2071 31.968,42.5404 32.5,45.5 Z"/></g>
<g><path style="opacity:0.004" fill="#b27926" d="M 121.5,44.5 C 120.833,44.5 120.5,44.8333 120.5,45.5C 120.167,45.5 119.833,45.5 119.5,45.5C 119.5,44.8333 119.167,44.5 118.5,44.5C 118.369,43.7611 118.536,43.0944 119,42.5C 119.667,43.8333 120.333,43.8333 121,42.5C 121.464,43.0944 121.631,43.7611 121.5,44.5 Z"/></g>
<g><path style="opacity:1" fill="#eed32d" d="M 91.5,36.5 C 99.9416,40.943 105.942,47.6096 109.5,56.5C 110.96,59.7045 111.46,63.0378 111,66.5C 109.837,61.1719 107.837,56.1719 105,51.5C 104.346,50.3044 103.846,50.3044 103.5,51.5C 110.668,64.1796 111.334,77.1796 105.5,90.5C 102.564,96.1005 98.5644,100.767 93.5,104.5C 93.1667,104.5 92.8333,104.5 92.5,104.5C 91.8333,104.5 91.5,104.167 91.5,103.5C 100.4,96.7034 105.4,87.7034 106.5,76.5C 108.024,59.8897 101.358,47.5564 86.5,39.5C 84.8516,38.0735 82.8516,37.2401 80.5,37C 76.1794,36.501 71.8461,36.3343 67.5,36.5C 68.6085,35.71 69.9419,35.21 71.5,35C 69.6183,34.8019 67.9516,34.3019 66.5,33.5C 75.1643,31.6944 83.4977,32.6944 91.5,36.5 Z"/></g>
<g><path style="opacity:1" fill="#e2d14e" d="M 87.5,70.5 C 87.9382,66.058 90.2716,63.058 94.5,61.5C 95.487,58.2317 95.8204,54.8984 95.5,51.5C 86.7655,53.9027 81.4322,59.5694 79.5,68.5C 78.8333,68.5 78.1667,68.5 77.5,68.5C 78.0081,65.8239 78.1747,63.1572 78,60.5C 74.6309,64.0374 71.1309,67.3707 67.5,70.5C 69.7246,66.7653 72.558,63.432 76,60.5C 76.3742,59.5838 76.8742,58.7504 77.5,58C 77.2716,57.6012 76.9382,57.4346 76.5,57.5C 77.4756,56.1851 78.4756,54.8518 79.5,53.5C 75.7516,52.158 72.0849,52.3247 68.5,54C 66.9625,55.7073 65.2959,57.2073 63.5,58.5C 64.4151,56.2459 65.7484,54.2459 67.5,52.5C 67.5,51.8333 67.5,51.1667 67.5,50.5C 70.5,50.5 73.5,50.5 76.5,50.5C 79.1977,50.4503 81.3644,51.4503 83,53.5C 85.1667,52 87.3333,50.5 89.5,49C 91.9018,48.1859 94.2351,48.3526 96.5,49.5C 97.8077,54.3203 97.8077,59.1536 96.5,64C 93.134,65.7218 90.134,67.8885 87.5,70.5 Z"/></g>
<g><path style="opacity:1" fill="#b97401" d="M 66.5,33.5 C 67.9516,34.3019 69.6183,34.8019 71.5,35C 69.9419,35.21 68.6085,35.71 67.5,36.5C 56.7882,38.3604 48.6216,44.0271 43,53.5C 37.3135,63.1223 36.1469,73.1223 39.5,83.5C 45.9269,103.388 59.5936,112.221 80.5,110C 84.9495,108.939 88.9495,107.105 92.5,104.5C 92.8333,104.5 93.1667,104.5 93.5,104.5C 94.3324,105.329 93.999,106.162 92.5,107C 85.0807,110.507 77.4141,112.674 69.5,113.5C 64.9627,113.116 60.6293,111.949 56.5,110C 51.3778,106.71 46.7112,102.877 42.5,98.5C 36.3622,88.0196 34.1956,76.6863 36,64.5C 40.3252,48.342 50.4918,38.0087 66.5,33.5 Z"/></g>
<g><path style="opacity:1" fill="#cd8801" d="M 67.5,52.5 C 65.7484,54.2459 64.4151,56.2459 63.5,58.5C 62.8333,59.5 62.1667,60.5 61.5,61.5C 58.1447,62.8552 55.8114,65.1886 54.5,68.5C 52.7376,69.2623 51.7376,70.5956 51.5,72.5C 50.4937,72.9377 50.4937,73.6043 51.5,74.5C 51.2865,76.1439 51.6198,77.6439 52.5,79C 51.552,79.4828 50.552,79.6495 49.5,79.5C 49.1953,84.7616 49.5286,89.9283 50.5,95C 54.2222,95.2382 57.8889,95.7382 61.5,96.5C 62.1887,94.6619 62.5221,92.9952 62.5,91.5C 67.7203,93.8669 72.7203,93.5336 77.5,90.5C 78.5,90.5 79.5,90.5 80.5,90.5C 79.2196,91.9313 77.5529,92.5979 75.5,92.5C 73.0722,94.0435 70.4056,95.0435 67.5,95.5C 67.9622,99.3027 68.9622,102.969 70.5,106.5C 68.5,106.5 66.5,106.5 64.5,106.5C 52.0253,102.023 44.0253,93.3564 40.5,80.5C 38.2477,66.7525 42.4144,55.4192 53,46.5C 56.5133,49.5176 57.68,53.1842 56.5,57.5C 56.8333,58.5 57.5,59.1667 58.5,59.5C 60.979,56.4352 63.979,54.1019 67.5,52.5 Z"/></g>
<g><path style="opacity:1" fill="#dcc67a" d="M 76.5,57.5 C 73.0225,63.5149 68.0225,64.8483 61.5,61.5C 62.1667,60.5 62.8333,59.5 63.5,58.5C 65.2959,57.2073 66.9625,55.7073 68.5,54C 72.0849,52.3247 75.7516,52.158 79.5,53.5C 78.4756,54.8518 77.4756,56.1851 76.5,57.5 Z"/></g>
<g><path style="opacity:1" fill="#e9e18b" d="M 87.5,70.5 C 87.5,71.5 87.5,72.5 87.5,73.5C 87.5654,73.9382 87.3988,74.2716 87,74.5C 85.887,73.2396 85.7203,72.073 86.5,71C 86,70.8333 85.5,70.6667 85,70.5C 83.85,71.4239 82.85,71.4239 82,70.5C 81.6667,71.1667 81.3333,71.8333 81,72.5C 80.79,70.9419 80.29,69.6085 79.5,68.5C 81.4322,59.5694 86.7655,53.9027 95.5,51.5C 95.8204,54.8984 95.487,58.2317 94.5,61.5C 90.2716,63.058 87.9382,66.058 87.5,70.5 Z"/></g>
<g><path style="opacity:1" fill="#efca02" d="M 34.5,53.5 C 32.4618,58.2843 31.4618,63.2843 31.5,68.5C 30.5119,73.6405 30.1786,78.9738 30.5,84.5C 29.8333,84.5 29.5,84.8333 29.5,85.5C 25.8519,73.0033 27.3519,61.0033 34,49.5C 34.49,50.7932 34.6567,52.1266 34.5,53.5 Z"/></g>
<g><path style="opacity:1" fill="#cca639" d="M 76.5,57.5 C 76.9382,57.4346 77.2716,57.6012 77.5,58C 76.8742,58.7504 76.3742,59.5838 76,60.5C 72.558,63.432 69.7246,66.7653 67.5,70.5C 67.3505,71.552 67.5172,72.552 68,73.5C 69.7073,75.0375 71.2073,76.7041 72.5,78.5C 71.5416,78.9528 70.7083,79.6195 70,80.5C 68,79.1667 66.3333,77.5 65,75.5C 64.586,75.9574 64.086,76.2907 63.5,76.5C 61.0867,73.4181 58.5867,70.4181 56,67.5C 55.6174,68.056 55.1174,68.3893 54.5,68.5C 55.8114,65.1886 58.1447,62.8552 61.5,61.5C 68.0225,64.8483 73.0225,63.5149 76.5,57.5 Z"/></g>
<g><path style="opacity:1" fill="#f8ed2e" d="M 77.5,68.5 C 77.3359,71.1873 77.5026,73.854 78,76.5C 78.2784,77.4158 78.7784,78.0825 79.5,78.5C 79.8333,79.8333 80.1667,81.1667 80.5,82.5C 83.2686,89.8865 88.6019,93.2198 96.5,92.5C 96.2627,91.209 96.596,90.209 97.5,89.5C 97.7135,91.1439 97.3802,92.6439 96.5,94C 94.236,94.2362 92.0693,94.7362 90,95.5C 88.2657,94.3621 86.4324,93.8621 84.5,94C 86.208,96.0435 88.208,97.7101 90.5,99C 89.1872,101.512 87.5205,103.679 85.5,105.5C 81.7464,108.111 77.7464,108.778 73.5,107.5C 86.9948,106.722 87.8281,103.388 76,97.5C 75.5065,95.8659 75.3398,94.1992 75.5,92.5C 77.5529,92.5979 79.2196,91.9313 80.5,90.5C 82.8586,89.6113 83.0253,88.278 81,86.5C 78.2972,83.6286 75.4639,80.9619 72.5,78.5C 71.2073,76.7041 69.7073,75.0375 68,73.5C 67.5172,72.552 67.3505,71.552 67.5,70.5C 71.1309,67.3707 74.6309,64.0374 78,60.5C 78.1747,63.1572 78.0081,65.8239 77.5,68.5 Z"/></g>
<g><path style="opacity:1" fill="#a06d1f" d="M 117.5,44.5 C 117.833,44.5 118.167,44.5 118.5,44.5C 119.167,44.5 119.5,44.8333 119.5,45.5C 119.833,48.1667 120.167,48.1667 120.5,45.5C 121.167,45.5 121.5,45.1667 121.5,44.5C 127.104,53.2373 129.77,62.9039 129.5,73.5C 129.864,80.4699 128.697,87.4699 126,94.5C 125.502,96.5444 124.335,97.8777 122.5,98.5C 122.167,95.8333 121.833,95.8333 121.5,98.5C 120.833,98.5 120.5,98.8333 120.5,99.5C 119.662,99.8417 119.328,100.508 119.5,101.5C 118.599,102.29 117.932,103.29 117.5,104.5C 116.833,104.5 116.5,104.833 116.5,105.5C 115.833,105.5 115.5,105.833 115.5,106.5C 115.167,106.5 114.833,106.5 114.5,106.5C 116.137,103.183 117.804,99.8501 119.5,96.5C 126.685,78.86 126.018,61.5267 117.5,44.5 Z M 125.5,58.5 C 127.118,61.1709 127.785,64.1709 127.5,67.5C 126.343,64.7273 125.676,61.7273 125.5,58.5 Z"/></g>
<g><path style="opacity:1" fill="#e8b415" d="M 109.5,56.5 C 111.558,58.9266 113.391,61.5932 115,64.5C 115.534,68.4727 116.367,71.806 117.5,74.5C 117.333,76.1667 117.167,77.8333 117,79.5C 114.679,82.4749 113.179,85.8083 112.5,89.5C 111.448,89.3505 110.448,89.5172 109.5,90C 107.789,92.5888 105.955,95.0888 104,97.5C 104.419,95.4971 105.253,93.4971 106.5,91.5C 106.376,90.8933 106.043,90.56 105.5,90.5C 111.334,77.1796 110.668,64.1796 103.5,51.5C 103.846,50.3044 104.346,50.3044 105,51.5C 107.837,56.1719 109.837,61.1719 111,66.5C 111.46,63.0378 110.96,59.7045 109.5,56.5 Z"/></g>
<g><path style="opacity:1" fill="#dac957" d="M 77.5,68.5 C 78.1667,68.5 78.8333,68.5 79.5,68.5C 80.29,69.6085 80.79,70.9419 81,72.5C 81.3333,71.8333 81.6667,71.1667 82,70.5C 82.85,71.4239 83.85,71.4239 85,70.5C 85.5,70.6667 86,70.8333 86.5,71C 85.7203,72.073 85.887,73.2396 87,74.5C 87.3988,74.2716 87.5654,73.9382 87.5,73.5C 89.538,77.5173 92.8714,79.5173 97.5,79.5C 97.5,82.8333 97.5,86.1667 97.5,89.5C 96.596,90.209 96.2627,91.209 96.5,92.5C 88.6019,93.2198 83.2686,89.8865 80.5,82.5C 83.3904,85.5526 86.7238,88.0526 90.5,90C 92.2588,90.7975 93.9255,90.6309 95.5,89.5C 92.7875,88.7719 90.1209,87.9385 87.5,87C 85.3329,83.6671 82.6662,80.8337 79.5,78.5C 78.7784,78.0825 78.2784,77.4158 78,76.5C 77.5026,73.854 77.3359,71.1873 77.5,68.5 Z"/></g>
<g><path style="opacity:1" fill="#e5b20e" d="M 67.5,36.5 C 71.8461,36.3343 76.1794,36.501 80.5,37C 82.8516,37.2401 84.8516,38.0735 86.5,39.5C 83.8728,38.9084 81.2062,38.5751 78.5,38.5C 72.0247,36.9521 65.6913,37.7855 59.5,41C 60.7659,41.3095 61.9326,41.8095 63,42.5C 63.8946,45.5481 65.3946,48.2148 67.5,50.5C 67.5,51.1667 67.5,51.8333 67.5,52.5C 63.979,54.1019 60.979,56.4352 58.5,59.5C 57.5,59.1667 56.8333,58.5 56.5,57.5C 57.68,53.1842 56.5133,49.5176 53,46.5C 42.4144,55.4192 38.2477,66.7525 40.5,80.5C 39.596,81.209 39.2627,82.209 39.5,83.5C 36.1469,73.1223 37.3135,63.1223 43,53.5C 48.6216,44.0271 56.7882,38.3604 67.5,36.5 Z"/></g>
<g><path style="opacity:1" fill="#c89f32" d="M 72.5,78.5 C 75.4639,80.9619 78.2972,83.6286 81,86.5C 83.0253,88.278 82.8586,89.6113 80.5,90.5C 76.6877,89.6762 72.6877,89.1762 68.5,89C 63.2698,83.0513 57.6031,77.5513 51.5,72.5C 51.7376,70.5956 52.7376,69.2623 54.5,68.5C 55.1174,68.3893 55.6174,68.056 56,67.5C 58.5867,70.4181 61.0867,73.4181 63.5,76.5C 64.086,76.2907 64.586,75.9574 65,75.5C 66.3333,77.5 68,79.1667 70,80.5C 70.7083,79.6195 71.5416,78.9528 72.5,78.5 Z"/></g>
<g><path style="opacity:1" fill="#fdf73a" d="M 106.5,76.5 C 105.4,87.7034 100.4,96.7034 91.5,103.5C 89.6854,104.63 87.6854,105.296 85.5,105.5C 87.5205,103.679 89.1872,101.512 90.5,99C 88.208,97.7101 86.208,96.0435 84.5,94C 86.4324,93.8621 88.2657,94.3621 90,95.5C 92.0693,94.7362 94.236,94.2362 96.5,94C 97.3802,92.6439 97.7135,91.1439 97.5,89.5C 97.5,86.1667 97.5,82.8333 97.5,79.5C 97.3893,78.8826 97.056,78.3826 96.5,78C 99.3497,75.3176 102.016,72.4843 104.5,69.5C 105.086,69.7093 105.586,70.0426 106,70.5C 106.495,72.4727 106.662,74.4727 106.5,76.5 Z"/></g>
<g><path style="opacity:1" fill="#e2a602" d="M 31.5,68.5 C 31.1304,74.9251 31.6304,81.2584 33,87.5C 34.4774,94.4623 37.9774,100.129 43.5,104.5C 43.369,105.239 43.5357,105.906 44,106.5C 47.6919,109.365 51.1919,112.365 54.5,115.5C 44.8491,110.682 37.6825,103.348 33,93.5C 31.8551,90.5682 31.0218,87.5682 30.5,84.5C 30.1786,78.9738 30.5119,73.6405 31.5,68.5 Z"/></g>
<g><path style="opacity:1" fill="#663609" d="M 51.5,72.5 C 57.6031,77.5513 63.2698,83.0513 68.5,89C 72.6877,89.1762 76.6877,89.6762 80.5,90.5C 79.5,90.5 78.5,90.5 77.5,90.5C 74.1501,90.665 70.8168,90.4983 67.5,90C 62.298,84.6303 56.9647,79.4636 51.5,74.5C 50.4937,73.6043 50.4937,72.9377 51.5,72.5 Z"/></g>
<g><path style="opacity:1" fill="#90571c" d="M 79.5,78.5 C 82.6662,80.8337 85.3329,83.6671 87.5,87C 90.1209,87.9385 92.7875,88.7719 95.5,89.5C 93.9255,90.6309 92.2588,90.7975 90.5,90C 86.7238,88.0526 83.3904,85.5526 80.5,82.5C 80.1667,81.1667 79.8333,79.8333 79.5,78.5 Z"/></g>
<g><path style="opacity:0.004" fill="#b07423" d="M 30.5,44.5 C 31.1667,44.5 31.5,44.8333 31.5,45.5C 31.5,46.1667 31.5,46.8333 31.5,47.5C 30.8333,47.5 30.5,47.8333 30.5,48.5C 29.6618,48.8417 29.3284,49.5084 29.5,50.5C 28.596,51.209 28.2627,52.209 28.5,53.5C 27.6618,53.8417 27.3284,54.5084 27.5,55.5C 26.5655,56.5676 26.2322,57.901 26.5,59.5C 25.5655,60.5676 25.2322,61.901 25.5,63.5C 24.5318,65.6074 24.1984,67.9407 24.5,70.5C 23.1667,72.8333 23.1667,75.1667 24.5,77.5C 24.1984,80.0593 24.5318,82.3926 25.5,84.5C 25.2322,86.099 25.5655,87.4324 26.5,88.5C 26.2627,89.791 26.596,90.791 27.5,91.5C 27.2627,92.791 27.596,93.791 28.5,94.5C 28.3284,95.4916 28.6618,96.1583 29.5,96.5C 29.3284,97.4916 29.6618,98.1583 30.5,98.5C 30.3284,99.4916 30.6618,100.158 31.5,100.5C 31.5,101.167 31.5,101.833 31.5,102.5C 30.8333,102.5 30.5,102.833 30.5,103.5C 22.3656,88.7043 20.5322,73.0377 25,56.5C 26.0612,52.0505 27.8946,48.0505 30.5,44.5 Z"/></g>
<g><path style="opacity:1" fill="#c68709" d="M 83.5,30.5 C 89.6875,31.097 95.3542,33.097 100.5,36.5C 101.479,38.1454 102.812,39.4787 104.5,40.5C 103.738,40.9106 102.738,41.0773 101.5,41C 104.372,43.5366 106.872,46.3699 109,49.5C 115.2,62.5786 115.867,62.2453 111,48.5C 112.92,51.3388 114.587,54.3388 116,57.5C 117.845,65.8714 119.011,74.2047 119.5,82.5C 112.243,110.779 94.2434,123.112 65.5,119.5C 76.9014,120.815 87.5681,118.648 97.5,113C 96.9056,112.536 96.2389,112.369 95.5,112.5C 99.7341,109.868 103.401,106.534 106.5,102.5C 109.389,99.7442 111.556,96.4109 113,92.5C 113.74,91.2506 113.573,90.2506 112.5,89.5C 113.179,85.8083 114.679,82.4749 117,79.5C 117.167,77.8333 117.333,76.1667 117.5,74.5C 116.367,71.806 115.534,68.4727 115,64.5C 113.391,61.5932 111.558,58.9266 109.5,56.5C 105.942,47.6096 99.9416,40.943 91.5,36.5C 93.5492,36.2942 93.8825,35.4609 92.5,34C 89.4289,32.7043 86.4289,31.5377 83.5,30.5 Z"/></g>
<g><path style="opacity:1" fill="#b77c07" d="M 51.5,74.5 C 56.9647,79.4636 62.298,84.6303 67.5,90C 70.8168,90.4983 74.1501,90.665 77.5,90.5C 72.7203,93.5336 67.7203,93.8669 62.5,91.5C 62.5221,92.9952 62.1887,94.6619 61.5,96.5C 57.8889,95.7382 54.2222,95.2382 50.5,95C 49.5286,89.9283 49.1953,84.7616 49.5,79.5C 50.552,79.6495 51.552,79.4828 52.5,79C 51.6198,77.6439 51.2865,76.1439 51.5,74.5 Z"/></g>
<g><path style="opacity:1" fill="#6c400a" d="M 50.5,81.5 C 51.4731,83.9479 51.8064,86.6146 51.5,89.5C 53.924,89.1924 56.2573,89.5258 58.5,90.5C 55.9135,91.48 53.2469,91.8134 50.5,91.5C 50.5,88.1667 50.5,84.8333 50.5,81.5 Z"/></g>
<g><path style="opacity:1" fill="#e9c21a" d="M 40.5,80.5 C 44.0253,93.3564 52.0253,102.023 64.5,106.5C 67.2869,107.477 70.2869,107.81 73.5,107.5C 77.7464,108.778 81.7464,108.111 85.5,105.5C 87.6854,105.296 89.6854,104.63 91.5,103.5C 91.5,104.167 91.8333,104.5 92.5,104.5C 88.9495,107.105 84.9495,108.939 80.5,110C 59.5936,112.221 45.9269,103.388 39.5,83.5C 39.2627,82.209 39.596,81.209 40.5,80.5 Z"/></g>
<g><path style="opacity:0.012" fill="#855324" d="M 121.5,98.5 C 121.833,98.5 122.167,98.5 122.5,98.5C 122.611,99.1174 122.944,99.6174 123.5,100C 122.584,100.278 121.918,100.778 121.5,101.5C 121.167,101.5 120.833,101.5 120.5,101.5C 120.5,100.833 120.5,100.167 120.5,99.5C 121.167,99.5 121.5,99.1667 121.5,98.5 Z"/></g>
<g><path style="opacity:0.004" fill="#8f6730" d="M 121.5,101.5 C 122.833,102.167 122.833,102.167 121.5,101.5 Z"/></g>
<g><path style="opacity:0.004" fill="#8a602a" d="M 119.5,101.5 C 119.833,101.5 120.167,101.5 120.5,101.5C 120.5,102.167 120.833,102.5 121.5,102.5C 121.672,103.492 121.338,104.158 120.5,104.5C 119.89,103.609 119.557,102.609 119.5,101.5 Z"/></g>
<g><path style="opacity:0.004" fill="#a3681e" d="M 31.5,102.5 C 31.8333,102.5 32.1667,102.5 32.5,102.5C 33.1667,102.5 33.5,102.833 33.5,103.5C 33.5,104.167 33.5,104.833 33.5,105.5C 32.603,104.402 31.7697,104.402 31,105.5C 30.5357,104.906 30.369,104.239 30.5,103.5C 31.1667,103.5 31.5,103.167 31.5,102.5 Z"/></g>
<g><path style="opacity:0.004" fill="#885f28" d="M 120.5,104.5 C 119.833,105.167 119.833,105.167 120.5,104.5 Z"/></g>
<g><path style="opacity:0.004" fill="#8b612e" d="M 117.5,104.5 C 118.167,104.833 118.833,105.167 119.5,105.5C 119.672,106.492 119.338,107.158 118.5,107.5C 118.167,106.167 117.833,106.167 117.5,107.5C 116.662,107.158 116.328,106.492 116.5,105.5C 117.167,105.5 117.5,105.167 117.5,104.5 Z"/></g>
<g><path style="opacity:0.004" fill="#875e2a" d="M 117.5,107.5 C 117.833,107.5 118.167,107.5 118.5,107.5C 118.315,108.17 117.981,108.17 117.5,107.5 Z"/></g>
<g><path style="opacity:0.004" fill="#875f2a" d="M 117.5,108.5 C 116.833,109.167 116.833,109.167 117.5,108.5 Z"/></g>
<g><path style="opacity:0.004" fill="#7c5015" d="M 116.5,109.5 C 115.833,110.167 115.833,110.167 116.5,109.5 Z"/></g>
<g><path style="opacity:0.004" fill="#784b0d" d="M 115.5,110.5 C 114.833,111.167 114.833,111.167 115.5,110.5 Z"/></g>
<g><path style="opacity:0.004" fill="#734406" d="M 114.5,111.5 C 113.833,112.167 113.833,112.167 114.5,111.5 Z"/></g>
<g><path style="opacity:0.004" fill="#6a3908" d="M 113.5,112.5 C 112.833,113.167 112.833,113.167 113.5,112.5 Z"/></g>
<g><path style="opacity:0.004" fill="#6a3c01" d="M 112.5,113.5 C 111.833,114.167 111.833,114.167 112.5,113.5 Z"/></g>
<g><path style="opacity:0.004" fill="#73460e" d="M 110.5,114.5 C 110.833,114.5 111.167,114.5 111.5,114.5C 111.315,115.17 110.981,115.17 110.5,114.5 Z"/></g>
<g><path style="opacity:0.004" fill="#7e541e" d="M 109.5,115.5 C 109.833,115.5 110.167,115.5 110.5,115.5C 110.315,116.17 109.981,116.17 109.5,115.5 Z"/></g>
<g><path style="opacity:0.004" fill="#7b511b" d="M 108.5,116.5 C 108.833,116.5 109.167,116.5 109.5,116.5C 109.315,117.17 108.981,117.17 108.5,116.5 Z"/></g>
<g><path style="opacity:0.004" fill="#855013" d="M 43.5,117.5 C 42.8333,118.167 42.8333,118.167 43.5,117.5 Z"/></g>
<g><path style="opacity:0.004" fill="#774a14" d="M 105.5,118.5 C 105.833,118.5 106.167,118.5 106.5,118.5C 106.315,119.17 105.981,119.17 105.5,118.5 Z"/></g>
<g><path style="opacity:0.016" fill="#905212" d="M 33.5,105.5 C 33.8333,105.5 34.1667,105.5 34.5,105.5C 35.1667,105.5 35.5,105.833 35.5,106.5C 36.1667,106.5 36.5,106.833 36.5,107.5C 39.385,108.382 42.0517,109.716 44.5,111.5C 45.7536,114.093 47.4202,116.427 49.5,118.5C 55.2222,121.011 61.2222,122.844 67.5,124C 71.4862,124.499 75.4862,124.666 79.5,124.5C 76.7131,125.477 73.7131,125.81 70.5,125.5C 69.1667,125.833 69.1667,126.167 70.5,126.5C 70.5,126.833 70.5,127.167 70.5,127.5C 69.1667,127.5 67.8333,127.5 66.5,127.5C 63.8015,127.534 61.3015,126.867 59,125.5C 57.984,126.634 57.3173,126.301 57,124.5C 56.586,124.957 56.086,125.291 55.5,125.5C 53.4883,124.078 51.4883,122.745 49.5,121.5C 49.1667,120.167 48.8333,120.167 48.5,121.5C 47.4814,119.493 45.8147,118.16 43.5,117.5C 42.6677,114.071 40.501,111.071 37,108.5C 35.0483,109.7 33.5483,109.2 32.5,107C 33.056,106.617 33.3893,106.117 33.5,105.5 Z"/></g>
<g><path style="opacity:0.004" fill="#7c5121" d="M 104.5,119.5 C 104.833,119.5 105.167,119.5 105.5,119.5C 105.315,120.17 104.981,120.17 104.5,119.5 Z"/></g>
<g><path style="opacity:1" fill="#f5dc0d" d="M 120.5,79.5 C 120.5,80.1667 120.833,80.5 121.5,80.5C 114.795,109.701 96.4618,123.534 66.5,122C 58.2217,120.36 50.8884,116.86 44.5,111.5C 36.9083,104.315 31.9083,95.6484 29.5,85.5C 29.5,84.8333 29.8333,84.5 30.5,84.5C 31.0218,87.5682 31.8551,90.5682 33,93.5C 37.6825,103.348 44.8491,110.682 54.5,115.5C 57.6599,118 61.3266,119.333 65.5,119.5C 94.2434,123.112 112.243,110.779 119.5,82.5C 119.263,81.209 119.596,80.209 120.5,79.5 Z"/></g>
<g><path style="opacity:1" fill="#af7406" d="M 43.5,102.5 C 58.4989,117.668 75.8322,121.001 95.5,112.5C 96.2389,112.369 96.9056,112.536 97.5,113C 87.5681,118.648 76.9014,120.815 65.5,119.5C 61.3266,119.333 57.6599,118 54.5,115.5C 51.1919,112.365 47.6919,109.365 44,106.5C 43.5357,105.906 43.369,105.239 43.5,104.5C 43.5,103.833 43.5,103.167 43.5,102.5 Z"/></g>
<g><path style="opacity:1" fill="#854600" d="M 42.5,98.5 C 46.7112,102.877 51.3778,106.71 56.5,110C 60.6293,111.949 64.9627,113.116 69.5,113.5C 82.1442,113.915 92.8108,110.415 101.5,103C 103.134,102.506 104.801,102.34 106.5,102.5C 103.401,106.534 99.7341,109.868 95.5,112.5C 75.8322,121.001 58.4989,117.668 43.5,102.5C 43.1667,101.167 42.8333,99.8333 42.5,98.5 Z"/></g>
<g><path style="opacity:1" fill="#e6a801" d="M 75.5,92.5 C 75.3398,94.1992 75.5065,95.8659 76,97.5C 87.8281,103.388 86.9948,106.722 73.5,107.5C 70.2869,107.81 67.2869,107.477 64.5,106.5C 66.5,106.5 68.5,106.5 70.5,106.5C 68.9622,102.969 67.9622,99.3027 67.5,95.5C 70.4056,95.0435 73.0722,94.0435 75.5,92.5 Z"/></g>
<g><path style="opacity:1" fill="#c67f01" d="M 112.5,89.5 C 113.573,90.2506 113.74,91.2506 113,92.5C 111.556,96.4109 109.389,99.7442 106.5,102.5C 104.801,102.34 103.134,102.506 101.5,103C 92.8108,110.415 82.1442,113.915 69.5,113.5C 77.4141,112.674 85.0807,110.507 92.5,107C 93.999,106.162 94.3324,105.329 93.5,104.5C 98.5644,100.767 102.564,96.1005 105.5,90.5C 106.043,90.56 106.376,90.8933 106.5,91.5C 105.253,93.4971 104.419,95.4971 104,97.5C 105.955,95.0888 107.789,92.5888 109.5,90C 110.448,89.5172 111.448,89.3505 112.5,89.5 Z"/></g>
<g><path style="opacity:0.004" fill="#7a4f1a" d="M 48.5,121.5 C 48.8333,121.5 49.1667,121.5 49.5,121.5C 49.3147,122.17 48.9813,122.17 48.5,121.5 Z"/></g>
<g><path style="opacity:0.004" fill="#784716" d="M 114.5,106.5 C 114.833,106.5 115.167,106.5 115.5,106.5C 113.706,108.797 111.706,110.963 109.5,113C 110.056,113.383 110.389,113.883 110.5,114.5C 109.833,114.5 109.5,114.833 109.5,115.5C 108.833,115.5 108.5,115.833 108.5,116.5C 107.167,116.833 107.167,117.167 108.5,117.5C 108.158,118.338 107.492,118.672 106.5,118.5C 106.167,117.167 105.833,117.167 105.5,118.5C 104.833,118.5 104.5,118.833 104.5,119.5C 103.733,120.172 103.066,121.005 102.5,122C 97.8389,123.191 93.5056,124.857 89.5,127C 81.7053,128.612 74.0387,128.778 66.5,127.5C 67.8333,127.5 69.1667,127.5 70.5,127.5C 71.8333,127.167 71.8333,126.833 70.5,126.5C 70.5,126.167 70.5,125.833 70.5,125.5C 73.7131,125.81 76.7131,125.477 79.5,124.5C 83.1545,124.058 86.8212,123.724 90.5,123.5C 91.8493,124.644 92.1826,124.644 91.5,123.5C 95.1939,120.803 99.1939,118.303 103.5,116C 107.334,112.998 111,109.831 114.5,106.5 Z"/></g>
<g><path style="opacity:0.989" fill="#bf7800" d="M 119.5,96.5 C 117.804,99.8501 116.137,103.183 114.5,106.5C 111,109.831 107.334,112.998 103.5,116C 99.1939,118.303 95.1939,120.803 91.5,123.5C 91.1667,123.5 90.8333,123.5 90.5,123.5C 86.8212,123.724 83.1545,124.058 79.5,124.5C 75.4862,124.666 71.4862,124.499 67.5,124C 61.2222,122.844 55.2222,121.011 49.5,118.5C 47.4202,116.427 45.7536,114.093 44.5,111.5C 50.8884,116.86 58.2217,120.36 66.5,122C 96.4618,123.534 114.795,109.701 121.5,80.5C 122.912,68.8462 120.912,57.8462 115.5,47.5C 115.846,46.3044 116.346,46.3044 117,47.5C 124.995,63.2683 125.495,79.2683 118.5,95.5C 118.624,96.1067 118.957,96.44 119.5,96.5 Z"/></g>
</svg>
